<svg width="58" height="56" viewBox="0 0 58 56" fill="none" xmlns="http://www.w3.org/2000/svg">
<path fill-rule="evenodd" clip-rule="evenodd" d="M41.6947 24.2892C40.4166 24.2892 39.6945 24.5346 39.28 25.1097C38.8469 25.7103 38.7598 26.6584 38.7598 27.9937C38.7598 30.6151 39.1676 31.7109 41.6947 31.7109C41.9982 31.7109 43.0357 31.7051 43.6414 31.6316C43.877 31.5928 43.9826 31.4133 43.9826 31.2527V30.9632C43.9826 30.7379 43.8114 30.5679 43.5842 30.5679H41.6946C40.2688 30.5679 40.0117 30.2337 39.9751 28.3336V27.7185C39.9873 25.7741 40.2444 25.4322 41.6947 25.4322C43.032 25.4322 43.2884 25.7356 43.3329 27.4474H41.2079V28.6031H44.0028C44.5533 28.6031 44.5533 28.2202 44.5533 28.0945V27.7255C44.5134 25.06 43.8721 24.2892 41.6947 24.2892ZM38.0145 24.3911L37.9842 24.3831C37.7239 24.3287 37.0126 24.2892 36.6599 24.2892C35.4119 24.2892 34.7524 24.8088 34.7524 25.7919V31.2652C34.7524 31.4905 34.9108 31.6479 35.138 31.6479H35.582C35.8092 31.6479 35.9677 31.4906 35.9677 31.2652V25.8924C35.9677 25.6498 36.0294 25.4322 36.7741 25.4322L37.8768 25.4313C37.9847 25.4441 38.0877 25.4144 38.1671 25.3475C38.2537 25.275 38.3013 25.169 38.3013 25.0495V24.7726C38.3013 24.5909 38.1967 24.4518 38.0145 24.3911ZM32.6848 24.3774H32.2408C32.0137 24.3774 31.8551 24.5347 31.8551 24.7601V30.568H30.0089C28.8669 30.568 28.4035 30.4958 28.4035 28.6858V24.7601C28.4035 24.5348 28.2449 24.3774 28.0178 24.3774H27.5864C27.3593 24.3774 27.1881 24.5418 27.1881 24.7601V28.6858C27.1881 31.2582 28.1263 31.7109 30.0976 31.7109C30.8068 31.7109 31.778 31.7109 32.7041 31.5812L32.7256 31.5769C32.9544 31.5201 33.0704 31.3898 33.0704 31.1898V24.7601C33.0704 24.5348 32.9118 24.3774 32.6848 24.3774Z" fill="#272727"/>
<path fill-rule="evenodd" clip-rule="evenodd" d="M25.8188 24.5571C25.7619 24.4366 25.6396 24.3648 25.492 24.3648H24.9214C24.7556 24.3648 24.6317 24.4312 24.5665 24.5507L23.7207 25.7795L24.4611 26.7863L25.7538 24.9424C25.8956 24.771 25.8465 24.6158 25.8188 24.5571Z" fill="#74BB11"/>
<path fill-rule="evenodd" clip-rule="evenodd" d="M21.3602 24.5367L21.3595 24.5355C21.2305 24.3647 21.059 24.3647 21.0026 24.3647H20.4445C20.3015 24.3647 20.1844 24.43 20.1232 24.5438C20.0603 24.6603 20.0736 24.8003 20.1607 24.93L22.2283 27.7803L19.8507 31.0781C19.7677 31.2021 19.756 31.34 19.8187 31.4564C19.8803 31.5702 19.9975 31.6353 20.1402 31.6353H20.7107C20.8574 31.6353 20.9865 31.5596 21.051 31.4403L23.7122 27.7935L21.3602 24.5367Z" fill="#009CD9"/>
<path fill-rule="evenodd" clip-rule="evenodd" d="M26.1027 31.1069L24.4439 28.843L23.7142 29.8433L25.026 31.5844L25.0602 31.5993C25.1122 31.6225 25.1686 31.6348 25.2256 31.6352H25.7836C25.9184 31.6352 26.0328 31.5757 26.0976 31.4717C26.1639 31.3651 26.1658 31.2323 26.1027 31.1069Z" fill="#EB2084"/>
<path fill-rule="evenodd" clip-rule="evenodd" d="M17.6563 28.5527V30.4752C17.0914 30.5614 16.2303 30.5805 15.9368 30.5805C14.6386 30.5805 14.4963 30.2278 14.4963 29.4786C14.4963 28.7776 14.7601 28.5526 15.5817 28.5526L17.6563 28.5527ZM15.8734 24.2891C15.4723 24.2891 14.9252 24.2995 14.2446 24.3809L14.2138 24.3877C14.0156 24.4438 13.9152 24.5733 13.9152 24.7726V25.0494C13.9152 25.2854 14.0629 25.4321 14.3008 25.4321H15.8735C17.1398 25.4321 17.6563 25.7733 17.6563 26.6096V27.4223H15.5817C13.9603 27.4223 13.2684 28.0372 13.2684 29.4785C13.2684 31.0849 13.9845 31.7109 15.8227 31.7109C16.5673 31.7109 17.9379 31.6533 18.4444 31.4997C18.8716 31.3818 18.8716 31.0573 18.8716 30.9507V26.5342C18.8716 25.0235 17.8909 24.2891 15.8735 24.2891H15.8734Z" fill="#272727"/>
</svg>
