<svg width="56" height="56" viewBox="0 0 56 56" fill="none" xmlns="http://www.w3.org/2000/svg">
<path d="M35.4074 18.3704H36.8889C37.3037 18.3704 37.6296 18.6963 37.6296 19.1111C37.6296 19.5259 37.3037 19.8519 36.8889 19.8519H35.4074C34.9926 19.8519 34.6667 19.5259 34.6667 19.1111C34.6667 18.6963 34.9926 18.3704 35.4074 18.3704Z" fill="#56B3B4"/>
<path d="M13.1852 42.0741H20.5926C21.0074 42.0741 21.3333 42.4 21.3333 42.8148C21.3333 43.2297 21.0074 43.5556 20.5926 43.5556H13.1852C12.7704 43.5556 12.4444 43.2297 12.4444 42.8148C12.4444 42.4 12.7704 42.0741 13.1852 42.0741Z" fill="#EA5E5E"/>
<path d="M30.963 30.2223H35.4074C35.8222 30.2223 36.1481 30.5482 36.1481 30.963C36.1481 31.3778 35.8222 31.7037 35.4074 31.7037H30.963C30.5482 31.7037 30.2222 31.3778 30.2222 30.963C30.2222 30.5482 30.5482 30.2223 30.963 30.2223Z" fill="#BF85BF"/>
<path d="M22.0741 30.2223H28C28.4148 30.2223 28.7408 30.5482 28.7408 30.963C28.7408 31.3778 28.4148 31.7037 28 31.7037H22.0741C21.6593 31.7037 21.3333 31.3778 21.3333 30.963C21.3333 30.5482 21.6593 30.2223 22.0741 30.2223Z" fill="#EA5E5E"/>
<path d="M13.1852 30.2223H19.1111C19.5259 30.2223 19.8519 30.5482 19.8519 30.963C19.8519 31.3778 19.5259 31.7037 19.1111 31.7037H13.1852C12.7704 31.7037 12.4444 31.3778 12.4444 30.963C12.4444 30.5482 12.7704 30.2223 13.1852 30.2223Z" fill="#56B3B4"/>
<path d="M13.1852 36.1481H20.5926C21.0074 36.1481 21.3333 36.4741 21.3333 36.8889C21.3333 37.3037 21.0074 37.6296 20.5926 37.6296H13.1852C12.7704 37.6296 12.4444 37.3037 12.4444 36.8889C12.4444 36.4741 12.7704 36.1481 13.1852 36.1481Z" fill="#BF85BF"/>
<path d="M13.1852 24.2963H20.5926C21.0074 24.2963 21.3333 24.6222 21.3333 25.037C21.3333 25.4519 21.0074 25.7778 20.5926 25.7778H13.1852C12.7704 25.7778 12.4444 25.4519 12.4444 25.037C12.4444 24.6222 12.7704 24.2963 13.1852 24.2963Z" fill="#BF85BF"/>
<path d="M20.5926 15.4074H35.4074C35.8222 15.4074 36.1481 15.7333 36.1481 16.1482C36.1481 16.563 35.8222 16.8889 35.4074 16.8889H20.5926C20.1778 16.8889 19.8518 16.563 19.8518 16.1482C19.8518 15.7333 20.1778 15.4074 20.5926 15.4074Z" fill="#F7BA3E"/>
<path d="M13.1852 15.4074H17.6296C18.0444 15.4074 18.3704 15.7333 18.3704 16.1482C18.3704 16.563 18.0444 16.8889 17.6296 16.8889H13.1852C12.7704 16.8889 12.4444 16.563 12.4444 16.1482C12.4444 15.7333 12.7704 15.4074 13.1852 15.4074Z" fill="#EA5E5E"/>
<path d="M19.1111 39.1111H20.5926C21.0074 39.1111 21.3333 39.437 21.3333 39.8519C21.3333 40.2667 21.0074 40.5926 20.5926 40.5926H19.1111C18.6963 40.5926 18.3704 40.2667 18.3704 39.8519C18.3704 39.437 18.6963 39.1111 19.1111 39.1111Z" fill="#F7BA3E"/>
<path d="M19.1111 21.3334H20.5926C21.0074 21.3334 21.3333 21.6593 21.3333 22.0741C21.3333 22.4889 21.0074 22.8148 20.5926 22.8148H19.1111C18.6963 22.8148 18.3704 22.4889 18.3704 22.0741C18.3704 21.6593 18.6963 21.3334 19.1111 21.3334Z" fill="#56B3B4"/>
<path d="M13.1852 39.1111H16.1482C16.563 39.1111 16.8889 39.437 16.8889 39.8519C16.8889 40.2667 16.563 40.5926 16.1482 40.5926H13.1852C12.7704 40.5926 12.4444 40.2667 12.4444 39.8519C12.4444 39.437 12.7704 39.1111 13.1852 39.1111Z" fill="#56B3B4"/>
<path d="M13.1852 21.3334H16.1482C16.563 21.3334 16.8889 21.6593 16.8889 22.0741C16.8889 22.4889 16.563 22.8148 16.1482 22.8148H13.1852C12.7704 22.8148 12.4444 22.4889 12.4444 22.0741C12.4444 21.6593 12.7704 21.3334 13.1852 21.3334Z" fill="#F7BA3E"/>
<path opacity="0.5" d="M32.4445 39.1111H33.9259C34.3407 39.1111 34.6666 39.437 34.6666 39.8519C34.6666 40.2667 34.3407 40.5926 33.9259 40.5926H32.4445C32.0297 40.5926 31.7038 40.2667 31.7038 39.8519C31.7038 39.437 32.0297 39.1111 32.4445 39.1111Z" fill="#D0D4D8"/>
<path opacity="0.5" d="M23.5555 39.1111H29.4815C29.8963 39.1111 30.2222 39.437 30.2222 39.8519C30.2222 40.2667 29.8963 40.5926 29.4815 40.5926H23.5555C23.1407 40.5926 22.8148 40.2667 22.8148 39.8519C22.8148 39.437 23.1407 39.1111 23.5555 39.1111Z" fill="#D0D4D8"/>
<path opacity="0.5" d="M36.8889 39.1111H42.8148C43.2296 39.1111 43.5556 39.437 43.5556 39.8519C43.5556 40.2667 43.2296 40.5926 42.8148 40.5926H36.8889C36.4741 40.5926 36.1481 40.2667 36.1481 39.8519C36.1481 39.437 36.4741 39.1111 36.8889 39.1111Z" fill="#D0D4D8"/>
<path d="M25.037 27.2593H36.8889C37.3037 27.2593 37.6296 27.5852 37.6296 28C37.6296 28.4148 37.3037 28.7407 36.8889 28.7407H25.037C24.6222 28.7407 24.2963 28.4148 24.2963 28C24.2963 27.5852 24.6222 27.2593 25.037 27.2593Z" fill="#56B3B4"/>
<path d="M17.6296 27.2593H22.0741C22.4889 27.2593 22.8148 27.5852 22.8148 28C22.8148 28.4148 22.4889 28.7407 22.0741 28.7407H17.6296C17.2148 28.7407 16.8889 28.4148 16.8889 28C16.8889 27.5852 17.2148 27.2593 17.6296 27.2593Z" fill="#F7BA3E"/>
<path d="M13.1852 27.2593H14.6667C15.0815 27.2593 15.4074 27.5852 15.4074 28C15.4074 28.4148 15.0815 28.7407 14.6667 28.7407H13.1852C12.7704 28.7407 12.4444 28.4148 12.4444 28C12.4444 27.5852 12.7704 27.2593 13.1852 27.2593Z" fill="#EA5E5E"/>
<path d="M26.5185 18.3704H32.4444C32.8593 18.3704 33.1852 18.6963 33.1852 19.1111C33.1852 19.5259 32.8593 19.8519 32.4444 19.8519H26.5185C26.1037 19.8519 25.7778 19.5259 25.7778 19.1111C25.7778 18.6963 26.1037 18.3704 26.5185 18.3704Z" fill="#BF85BF"/>
<path d="M13.1852 18.3704H23.5555C23.9704 18.3704 24.2963 18.6963 24.2963 19.1111C24.2963 19.5259 23.9704 19.8519 23.5555 19.8519H13.1852C12.7704 19.8519 12.4444 19.5259 12.4444 19.1111C12.4444 18.6963 12.7704 18.3704 13.1852 18.3704Z" fill="#56B3B4"/>
<path d="M17.6296 33.1852H30.963C31.3778 33.1852 31.7037 33.5111 31.7037 33.9259C31.7037 34.3407 31.3778 34.6667 30.963 34.6667H17.6296C17.2148 34.6667 16.8889 34.3407 16.8889 33.9259C16.8889 33.5111 17.2148 33.1852 17.6296 33.1852Z" fill="#F7BA3E"/>
<path d="M13.1852 33.1852H14.6667C15.0815 33.1852 15.4074 33.5111 15.4074 33.9259C15.4074 34.3407 15.0815 34.6667 14.6667 34.6667H13.1852C12.7704 34.6667 12.4444 34.3407 12.4444 33.9259C12.4444 33.5111 12.7704 33.1852 13.1852 33.1852Z" fill="#BF85BF"/>
<path d="M30.963 21.3334H38.3704C38.7852 21.3334 39.1111 21.6593 39.1111 22.0741C39.1111 22.4889 38.7852 22.8148 38.3704 22.8148H30.963C30.5482 22.8148 30.2222 22.4889 30.2222 22.0741C30.2222 21.6593 30.5482 21.3334 30.963 21.3334Z" fill="#EA5E5E"/>
<path d="M30.963 24.2963H38.3704C38.7852 24.2963 39.1111 24.6222 39.1111 25.037C39.1111 25.4519 38.7852 25.7778 38.3704 25.7778H30.963C30.5482 25.7778 30.2222 25.4519 30.2222 25.037C30.2222 24.6222 30.5482 24.2963 30.963 24.2963Z" fill="#F7BA3E"/>
<path d="M13.1852 12.4445H30.963C31.3778 12.4445 31.7037 12.7704 31.7037 13.1852C31.7037 13.6 31.3778 13.9259 30.963 13.9259H13.1852C12.7704 13.9259 12.4444 13.6 12.4444 13.1852C12.4444 12.7704 12.7704 12.4445 13.1852 12.4445Z" fill="#56B3B4"/>
<path opacity="0.5" d="M33.9259 12.4445H42.8148C43.2296 12.4445 43.5556 12.7704 43.5556 13.1852C43.5556 13.6 43.2296 13.9259 42.8148 13.9259H33.9259C33.5111 13.9259 33.1852 13.6 33.1852 13.1852C33.1852 12.7704 33.5111 12.4445 33.9259 12.4445Z" fill="#D0D4D8"/>
<path opacity="0.5" d="M33.9259 33.1852H36.8889C37.3037 33.1852 37.6296 33.5111 37.6296 33.9259C37.6296 34.3407 37.3037 34.6667 36.8889 34.6667H33.9259C33.5111 34.6667 33.1852 34.3407 33.1852 33.9259C33.1852 33.5111 33.5111 33.1852 33.9259 33.1852Z" fill="#D0D4D8"/>
<path opacity="0.5" d="M39.8519 33.1852H42.8148C43.2297 33.1852 43.5556 33.5111 43.5556 33.9259C43.5556 34.3407 43.2297 34.6667 42.8148 34.6667H39.8519C39.437 34.6667 39.1111 34.3407 39.1111 33.9259C39.1111 33.5111 39.437 33.1852 39.8519 33.1852Z" fill="#D0D4D8"/>
<path opacity="0.5" d="M38.3704 30.2223H42.8148C43.2297 30.2223 43.5556 30.5482 43.5556 30.963C43.5556 31.3778 43.2297 31.7037 42.8148 31.7037H38.3704C37.9556 31.7037 37.6296 31.3778 37.6296 30.963C37.6296 30.5482 37.9556 30.2223 38.3704 30.2223Z" fill="#D0D4D8"/>
<path opacity="0.5" d="M38.3704 15.4074H42.8148C43.2297 15.4074 43.5556 15.7333 43.5556 16.1482C43.5556 16.563 43.2297 16.8889 42.8148 16.8889H38.3704C37.9556 16.8889 37.6296 16.563 37.6296 16.1482C37.6296 15.7333 37.9556 15.4074 38.3704 15.4074Z" fill="#D0D4D8"/>
<path opacity="0.5" d="M39.8519 27.2593H42.8148C43.2297 27.2593 43.5556 27.5852 43.5556 28C43.5556 28.4148 43.2297 28.7407 42.8148 28.7407H39.8519C39.437 28.7407 39.1111 28.4148 39.1111 28C39.1111 27.5852 39.437 27.2593 39.8519 27.2593Z" fill="#D0D4D8"/>
<path opacity="0.5" d="M39.8519 18.3704H42.8148C43.2297 18.3704 43.5556 18.6963 43.5556 19.1111C43.5556 19.5259 43.2297 19.8519 42.8148 19.8519H39.8519C39.437 19.8519 39.1111 19.5259 39.1111 19.1111C39.1111 18.6963 39.437 18.3704 39.8519 18.3704Z" fill="#D0D4D8"/>
<path opacity="0.5" d="M41.3333 21.3334H42.8148C43.2296 21.3334 43.5556 21.6593 43.5556 22.0741C43.5556 22.4889 43.2296 22.8148 42.8148 22.8148H41.3333C40.9185 22.8148 40.5926 22.4889 40.5926 22.0741C40.5926 21.6593 40.9185 21.3334 41.3333 21.3334Z" fill="#D0D4D8"/>
<path opacity="0.5" d="M41.3333 24.2963H42.8148C43.2296 24.2963 43.5556 24.6222 43.5556 25.037C43.5556 25.4519 43.2296 25.7778 42.8148 25.7778H41.3333C40.9185 25.7778 40.5926 25.4519 40.5926 25.037C40.5926 24.6222 40.9185 24.2963 41.3333 24.2963Z" fill="#D0D4D8"/>
<path opacity="0.5" d="M29.4815 36.1481H42.8148C43.2296 36.1481 43.5556 36.4741 43.5556 36.8889C43.5556 37.3037 43.2296 37.6296 42.8148 37.6296H29.4815C29.0667 37.6296 28.7408 37.3037 28.7408 36.8889C28.7408 36.4741 29.0667 36.1481 29.4815 36.1481Z" fill="#D0D4D8"/>
<path opacity="0.5" d="M23.5555 36.1481H26.5185C26.9333 36.1481 27.2592 36.4741 27.2592 36.8889C27.2592 37.3037 26.9333 37.6296 26.5185 37.6296H23.5555C23.1407 37.6296 22.8148 37.3037 22.8148 36.8889C22.8148 36.4741 23.1407 36.1481 23.5555 36.1481Z" fill="#D0D4D8"/>
<path opacity="0.5" d="M35.4074 42.0741H42.8149C43.2297 42.0741 43.5556 42.4 43.5556 42.8148C43.5556 43.2297 43.2297 43.5556 42.8149 43.5556H35.4074C34.9926 43.5556 34.6667 43.2297 34.6667 42.8148C34.6667 42.4 34.9926 42.0741 35.4074 42.0741Z" fill="#D0D4D8"/>
<path opacity="0.5" d="M23.5555 42.0741H32.4444C32.8592 42.0741 33.1852 42.4 33.1852 42.8148C33.1852 43.2297 32.8592 43.5556 32.4444 43.5556H23.5555C23.1407 43.5556 22.8148 43.2297 22.8148 42.8148C22.8148 42.4 23.1407 42.0741 23.5555 42.0741Z" fill="#D0D4D8"/>
<path opacity="0.5" d="M23.5555 21.3334H28C28.4148 21.3334 28.7408 21.6593 28.7408 22.0741C28.7408 22.4889 28.4148 22.8148 28 22.8148H23.5555C23.1407 22.8148 22.8148 22.4889 22.8148 22.0741C22.8148 21.6593 23.1407 21.3334 23.5555 21.3334Z" fill="#D0D4D8"/>
<path opacity="0.5" d="M23.5555 24.2963H28C28.4148 24.2963 28.7408 24.6222 28.7408 25.037C28.7408 25.4519 28.4148 25.7778 28 25.7778H23.5555C23.1407 25.7778 22.8148 25.4519 22.8148 25.037C22.8148 24.6222 23.1407 24.2963 23.5555 24.2963Z" fill="#D0D4D8"/>
</svg>
